# xmcd
#
# Track frame offsets: 
#        150
#        21750
#        41869
#        61463
#        74260
#        92778
#        112578
#        130128
#        144972
#        162322
#
# Disc length: 2432 seconds
#
# Revision: 0
# Processed by: cddbd v1.5.2PL0 Copyright (c) Steve Scherf et al.
# Submitted via: ExactAudioCopy v1.2
#
DISCID=83097e0a
DTITLE=Stonecold Hobos - The Stonecold Hobos
DYEAR=2015
DGENRE=Blues
TTITLE0=Catfish
TTITLE1=Dazed and Confused
TTITLE2=Five Dollar Fine
TTITLE3=Vac Packed and Fed Ex'd
TTITLE4=Cross Eyed Cat
TTITLE5=Jesus Just Left Chicago
TTITLE6=Champagne and Reefer
TTITLE7=Bad Leg Boogie
TTITLE8=Wish You Wood
TTITLE9=Talk to me Baby
EXTD=
EXTT0=
EXTT1=
EXTT2=
EXTT3=
EXTT4=
EXTT5=
EXTT6=
EXTT7=
EXTT8=
EXTT9=
PLAYORDER=
